<svg id="Layer_1" data-name="Layer 1" xmlns="http://www.w3.org/2000/svg" viewBox="0 0 1080 1080"><defs><style>.cls-1{fill:#fff;}.cls-2{fill:#d52028;}</style></defs><title>03. ADS Colour Logo</title><rect width="1080" height="1080"/><path class="cls-1" d="M200.87,688.54a2.29,2.29,0,0,0,2.13-3.11l-10.27-26.2h-.49L182,685.43a2.28,2.28,0,0,0,2.12,3.11ZM232,712.12a8.92,8.92,0,0,1-17.34,3l-3.68-9.4a2.27,2.27,0,0,0-2.12-1.45H176.2a2.27,2.27,0,0,0-2.12,1.46l-3.68,9.52A9,9,0,0,1,162,721.1a8.65,8.65,0,0,1-8.85-8.86,13,13,0,0,1,1.12-5l25.82-62.87C182.88,637.64,188,635,193,635s10,2.75,12.6,9.36l25.32,63a13.48,13.48,0,0,1,1.13,4.74"/><path class="cls-1" d="M328.47,645.83v65.26c0,5.5-4.51,10.28-10,10a9.42,9.42,0,0,1-9-9.59V675.22a1.59,1.59,0,0,0-2.91-.87l-11.32,17.18c-2.87,4.24-6.11,6.12-9.85,6.12-3.5,0-6.74-1.75-9.61-6.12l-11.2-16.65a1.58,1.58,0,0,0-2.9.88V711.5a9.27,9.27,0,0,1-9.48,9.6c-5.36,0-9.35-4-9.35-9.6V645.75c0-6.24,4.49-10.73,10.23-10.73,5.11,0,8,2,11.1,6.87l20.49,32.19a1.58,1.58,0,0,0,2.67,0l20.13-32.17c3.07-4.87,6.27-7,10.69-6.86a10.72,10.72,0,0,1,10.27,10.8"/><path class="cls-1" d="M385.48,688.54a3.15,3.15,0,0,0,2.94-4.3l-9.8-25h-.5l-9.79,25a3.15,3.15,0,0,0,2.94,4.3Zm32.44,23.58a8.92,8.92,0,0,1-17.34,3l-3.46-8.85a3.16,3.16,0,0,0-2.94-2H362.7a3.17,3.17,0,0,0-2.95,2l-3.46,9a9,9,0,0,1-8.35,5.86,8.66,8.66,0,0,1-8.86-8.86,13,13,0,0,1,1.12-5L366,644.38c2.75-6.74,7.86-9.36,12.85-9.36s10,2.75,12.6,9.36l25.32,63a13.48,13.48,0,0,1,1.13,4.74"/><path class="cls-1" d="M428.78,712.12V646A11,11,0,0,1,440,635c3.12,0,6.87,1,10.61,6l34.8,47.41h.13V644a9.36,9.36,0,0,1,18.71,0v66A11.08,11.08,0,0,1,493,721.1c-3.12,0-7.23-1.37-10.85-6.36l-34.43-46.41h-.25l.13,43.79c0,5-4,9-9.48,9a9,9,0,0,1-9.36-9"/><path class="cls-1" d="M584.85,712a8.48,8.48,0,0,1-8.73,8.49H527.89c-8.59,0-13.68-9.82-8.52-16.69a.83.83,0,0,1,.11-.15l37.82-49.75a.8.8,0,0,0-.63-1.28H526a8.48,8.48,0,1,1,0-17h48.28a9.86,9.86,0,0,1,9.48,9.73,11.06,11.06,0,0,1-2.74,7.36l-38,49.49a.8.8,0,0,0,.64,1.28h32.45a8.47,8.47,0,0,1,8.73,8.48"/><path class="cls-1" d="M596.33,684.67V644.51a9.61,9.61,0,0,1,19.21,0v40c0,15,8.48,20.09,17.59,20.09,8.73,0,17.59-5.37,17.59-20.09V644c0-5,4.74-9,9.85-9a9.07,9.07,0,0,1,9.23,9v40.67c0,25-18,36.93-36.8,36.93s-36.67-12-36.67-36.93"/><path class="cls-1" d="M686.9,712.12V646a11,11,0,0,1,11.23-11c3.12,0,6.86,1,10.61,6l34.8,47.41h.13V644a9.36,9.36,0,0,1,18.71,0v66a11.08,11.08,0,0,1-11.23,11.1c-3.12,0-7.23-1.37-10.85-6.36l-34.44-46.41h-.25l.13,43.79c0,5-4,9-9.48,9a9,9,0,0,1-9.36-9"/><path class="cls-1" d="M843,712a8.48,8.48,0,0,1-8.73,8.49H786c-8.59,0-13.68-9.82-8.52-16.69,0,0,.07-.11.11-.15l37.83-49.75a.8.8,0,0,0-.63-1.28H784.09a8.48,8.48,0,1,1,0-17h48.28a9.86,9.86,0,0,1,9.48,9.73,11.11,11.11,0,0,1-2.74,7.36l-38,49.49a.8.8,0,0,0,.64,1.28h32.44A8.47,8.47,0,0,1,843,712"/><path class="cls-1" d="M894.66,688.54a3,3,0,0,0,2.75-4l-9.9-25.28H887l-9.9,25.28a3,3,0,0,0,2.75,4Zm32.15,23.58a8.92,8.92,0,0,1-17.34,3l-3.51-9a3,3,0,0,0-2.75-1.88H871.45a3,3,0,0,0-2.76,1.89l-3.51,9.09a9,9,0,0,1-8.36,5.86,8.65,8.65,0,0,1-8.85-8.86,13,13,0,0,1,1.12-5l25.82-62.87c2.75-6.74,7.86-9.36,12.85-9.36s10,2.75,12.6,9.36l25.32,63a13.26,13.26,0,0,1,1.13,4.74"/><path class="cls-1" d="M266.63,761.94c0-7.13-4.7-12.18-12.37-12.18h-5.13v24h5.13c7.52,0,12.37-5,12.37-11.8m4.86,0c0,8.52-6.28,16-16.94,16h-7.8a2.23,2.23,0,0,1-2.29-2.28V747.91a2.23,2.23,0,0,1,2.29-2.33h7.8c10.61,0,16.94,7.18,16.94,16.36"/><path class="cls-1" d="M297.75,775.84a2.1,2.1,0,0,1-2.15,2.09H280.42a2.23,2.23,0,0,1-2.28-2.28V747.91a2.23,2.23,0,0,1,2.24-2.33H295a2.08,2.08,0,0,1,2.15,2.14,2.06,2.06,0,0,1-2.15,2H282.81v9.8h10.94a2,2,0,1,1,0,4H282.81v10.18H295.6a2.07,2.07,0,0,1,2.15,2.1"/><path class="cls-1" d="M321.29,768.65c0-3-1.94-5.09-5.94-5.09h-6.67v10.28h6.67c4,0,5.94-2.19,5.94-5.19m-12.61-19v9.89h6c3.43,0,5.43-2,5.43-5.09,0-2.85-2-4.8-5.66-4.8Zm17.37,19.12c0,5.24-3.9,9.14-10.37,9.14h-9.33a2.22,2.22,0,0,1-2.28-2.28V747.91a2.23,2.23,0,0,1,2.28-2.33h8.47c6.14,0,10,3.61,10,8.56a8,8,0,0,1-3.95,7.14,8.08,8.08,0,0,1,5.19,7.51"/><path class="cls-1" d="M354.69,747.67a2,2,0,0,1-2.1,2.09h-8.65v26.08a2.34,2.34,0,0,1-4.67,0V749.76h-8.7a2.1,2.1,0,0,1-.05-4.19h22.12a2,2,0,0,1,2.05,2.1"/><path class="cls-1" d="M368.44,775.41a2.71,2.71,0,0,1-1.43-2.29A2.05,2.05,0,0,1,369.1,771a3.79,3.79,0,0,1,2.09.91,12.18,12.18,0,0,0,6.86,2.14c3.42,0,5.71-1.86,5.71-4.71,0-3.1-2.91-4.38-6.52-6-5.09-2.24-8.76-4.47-8.76-9.51s4-8.76,10.14-8.76a14.1,14.1,0,0,1,6.89,1.52c1.1.53,1.86,1.24,1.86,2.28a2,2,0,0,1-1.95,2.15,4.26,4.26,0,0,1-1.71-.52,11.94,11.94,0,0,0-5-1.2c-3.61,0-5.52,2-5.52,4.29,0,3.09,3.48,4.37,6.95,6,4.52,1.94,8.32,4.28,8.32,9.51,0,5.85-4.7,9.23-10.6,9.23a15.64,15.64,0,0,1-9.37-2.9"/><path class="cls-1" d="M420.72,761.8c0-7.85-5.52-12.42-11.51-12.42S397.69,754,397.69,761.8s5.62,12.32,11.52,12.32,11.51-4.56,11.51-12.32m-27.83,0c0-9.56,7.18-16.7,16.32-16.7s16.36,7.14,16.36,16.7a16.15,16.15,0,0,1-16.36,16.6c-9.14,0-16.32-7-16.32-16.6"/><path class="cls-1" d="M450.17,775.84a2.05,2.05,0,0,1-2.1,2.09H434.46a2.24,2.24,0,0,1-2.28-2.33V747.67a2.25,2.25,0,0,1,2.33-2.33,2.27,2.27,0,0,1,2.33,2.33v26.07h11.23a2.06,2.06,0,0,1,2.1,2.1"/><path class="cls-1" d="M453.68,764.75V747.67a2.32,2.32,0,0,1,2.38-2.33,2.24,2.24,0,0,1,2.28,2.33v17c0,6.19,3.43,9.52,8.67,9.52,5.08,0,8.61-3.38,8.61-9.47V747.62a2.3,2.3,0,0,1,2.37-2.28,2.21,2.21,0,0,1,2.24,2.28v17.13c0,8.14-5.38,13.66-13.22,13.66-8.05,0-13.33-5.52-13.33-13.66"/><path class="cls-1" d="M511.29,747.67a2,2,0,0,1-2.09,2.09h-8.66v26.08a2.33,2.33,0,0,1-4.66,0V749.76h-8.71a2.1,2.1,0,0,1,0-4.19h22.12a2,2,0,0,1,2,2.1"/><path class="cls-1" d="M516.47,775.84V747.67a2.29,2.29,0,0,1,2.34-2.33,2.25,2.25,0,0,1,2.33,2.33v28.17a2.24,2.24,0,0,1-2.33,2.28,2.27,2.27,0,0,1-2.34-2.28"/><path class="cls-1" d="M555.63,761.8c0-7.85-5.52-12.42-11.51-12.42S532.6,754,532.6,761.8s5.62,12.32,11.52,12.32,11.51-4.56,11.51-12.32m-27.83,0c0-9.56,7.18-16.7,16.32-16.7s16.36,7.14,16.36,16.7a16.15,16.15,0,0,1-16.36,16.6c-9.14,0-16.32-7-16.32-16.6"/><path class="cls-1" d="M567.09,775.88V748.43a3,3,0,0,1,3.09-3.09,3.75,3.75,0,0,1,3.15,1.9l16,23.55h.09V747.62a2.29,2.29,0,0,1,4.57,0V775a3,3,0,0,1-3,3.09,3.74,3.74,0,0,1-3.24-2l-16-23.41h-.1l0,23.12a2.26,2.26,0,0,1-2.33,2.24,2.21,2.21,0,0,1-2.24-2.24"/><path class="cls-1" d="M601.53,775.41a2.72,2.72,0,0,1-1.42-2.29A2.05,2.05,0,0,1,602.2,771a3.79,3.79,0,0,1,2.09.91,12.2,12.2,0,0,0,6.85,2.14c3.43,0,5.71-1.86,5.71-4.71,0-3.1-2.9-4.38-6.51-6-5.1-2.24-8.76-4.47-8.76-9.51s4-8.76,10.14-8.76a14.17,14.17,0,0,1,6.9,1.52c1.09.53,1.85,1.24,1.85,2.28a2,2,0,0,1-2,2.15,4.26,4.26,0,0,1-1.71-.52,12,12,0,0,0-5-1.2c-3.61,0-5.51,2-5.51,4.29,0,3.09,3.47,4.37,6.94,6,4.52,1.94,8.33,4.28,8.33,9.51,0,5.85-4.71,9.23-10.61,9.23a15.67,15.67,0,0,1-9.38-2.9"/><path class="cls-1" d="M644.87,785a29,29,0,0,1-7.66-20,28.2,28.2,0,0,1,7.66-19.89,2.43,2.43,0,0,1,1.67-1,1.63,1.63,0,0,1,1.66,1.71,3,3,0,0,1-.9,1.81A27,27,0,0,0,641.4,765a27.72,27.72,0,0,0,5.9,17.46,3.1,3.1,0,0,1,.9,1.81,1.63,1.63,0,0,1-1.66,1.71,2.29,2.29,0,0,1-1.67-1"/><path class="cls-1" d="M669.85,756c0-3.71-2.57-6.28-6.85-6.28h-4.57v12.66H663c4.33,0,6.9-2.52,6.9-6.38m4.81,0c0,5.9-4.33,10.52-11.23,10.52h-5v9.23a2.29,2.29,0,0,1-2.33,2.38,2.26,2.26,0,0,1-2.33-2.38V747.86a2.26,2.26,0,0,1,2.28-2.33h2.38v.05h5c6.9,0,11.23,4.71,11.23,10.46"/><path class="cls-1" d="M703.43,747.67a2,2,0,0,1-2.09,2.09h-8.66v26.08a2.33,2.33,0,0,1-4.66,0V749.76h-8.71a2.1,2.1,0,0,1,0-4.19h22.12a2,2,0,0,1,2,2.1"/><path class="cls-1" d="M731.45,747.48a3.05,3.05,0,0,1-.47,1.43L720.8,764.8v11a2.34,2.34,0,0,1-4.67,0v-11L706,749.1a3,3,0,0,1-.52-1.52,2.15,2.15,0,0,1,2.24-2.24,2.11,2.11,0,0,1,1.94,1.14c2.91,4.66,5.95,9.28,8.85,14q4.35-7.07,8.76-13.89a2.42,2.42,0,0,1,2.14-1.29,2.12,2.12,0,0,1,2.09,2.14"/><path class="cls-1" d="M737.16,745.1a29,29,0,0,1,7.66,20A28.23,28.23,0,0,1,737.16,785a2.43,2.43,0,0,1-1.67,1,1.63,1.63,0,0,1-1.66-1.71,3,3,0,0,1,.9-1.81,27,27,0,0,0,5.9-17.32,27.75,27.75,0,0,0-5.9-17.46,3.16,3.16,0,0,1-.9-1.81,1.63,1.63,0,0,1,1.66-1.71,2.29,2.29,0,0,1,1.67,1"/><path class="cls-1" d="M780.69,775.84a2.05,2.05,0,0,1-2.1,2.09H765a2.24,2.24,0,0,1-2.29-2.33V747.67a2.25,2.25,0,0,1,2.34-2.33,2.28,2.28,0,0,1,2.33,2.33v26.07h11.22a2.06,2.06,0,0,1,2.1,2.1"/><path class="cls-1" d="M805.33,747.67a2,2,0,0,1-2.09,2.09h-8.66v26.08a2.34,2.34,0,0,1-4.67,0V749.76h-8.7a2.1,2.1,0,0,1-.05-4.19h22.12a2,2,0,0,1,2.05,2.1"/><path class="cls-1" d="M832.68,761.94c0-7.13-4.7-12.18-12.37-12.18h-5.13v24h5.13c7.52,0,12.37-5,12.37-11.8m4.86,0c0,8.52-6.28,16-16.94,16h-7.8a2.23,2.23,0,0,1-2.29-2.28V747.91a2.23,2.23,0,0,1,2.29-2.33h7.8c10.61,0,16.94,7.18,16.94,16.36"/><path class="cls-1" d="M410.74,807.43c2.52,0,4.12-1.31,4.12-3.59s-1.67-3.6-4-3.6h-3v7.19Zm7.4,8a.82.82,0,0,1-.82.84.86.86,0,0,1-.69-.33L411.18,809h-3.31v6.43a.82.82,0,0,1-.85.84.84.84,0,0,1-.88-.84V799.54a.85.85,0,0,1,.88-.87h3.85c3.63,0,5.73,2.13,5.73,5.06a5,5,0,0,1-3.59,4.91l4.95,6.14a1,1,0,0,1,.18.62"/><path class="cls-1" d="M431.5,815.37a.78.78,0,0,1-.82.77h-8.43a.83.83,0,0,1-.88-.85V799.54a.83.83,0,0,1,.83-.87h8.17a.77.77,0,0,1,.82.8.78.78,0,0,1-.82.77H423.1v6.26h6.6a.78.78,0,1,1,0,1.55h-6.6v6.52h7.58a.78.78,0,0,1,.82.8"/><path class="cls-1" d="M448.73,808.56v5.6a1.07,1.07,0,0,1-.72,1.13,11.78,11.78,0,0,1-5.37,1.11,9,9,0,1,1,.23-18,9.39,9.39,0,0,1,4.73,1.06c.57.31.67.61.67.95a.72.72,0,0,1-.67.75,1.68,1.68,0,0,1-.79-.27,8.32,8.32,0,0,0-3.88-.92,7.43,7.43,0,1,0,0,14.85,9.08,9.08,0,0,0,4.08-.92v-4.58h-3.72a.78.78,0,1,1,0-1.56h4.63a.79.79,0,0,1,.79.79"/><path class="cls-1" d="M451.91,814.86a1.43,1.43,0,1,1,1.44,1.41,1.42,1.42,0,0,1-1.44-1.41"/><path class="cls-1" d="M464.7,815.37V799.88a1.28,1.28,0,0,1,1.31-1.34,1.66,1.66,0,0,1,1.41.9l9.51,14.36H477V799.42a.85.85,0,0,1,.87-.88.83.83,0,0,1,.83.88v15.49a1.25,1.25,0,0,1-1.26,1.33,1.69,1.69,0,0,1-1.49-.92L466.42,801h-.05v14.41a.88.88,0,0,1-.85.87.85.85,0,0,1-.82-.87"/><path class="cls-1" d="M488.51,807.43c2.52,0,4.11-1.31,4.11-3.59s-1.67-3.6-4-3.6h-3v7.19Zm7.4,8a.83.83,0,0,1-.82.84.84.84,0,0,1-.69-.33L489,809h-3.32v6.43a.81.81,0,0,1-.84.84.84.84,0,0,1-.88-.84V799.54a.85.85,0,0,1,.88-.87h3.85c3.62,0,5.73,2.13,5.73,5.06a5,5,0,0,1-3.6,4.91l5,6.14a1,1,0,0,1,.18.62"/><path class="cls-1" d="M508.77,815.32a.76.76,0,0,1-.79.82h-9.3a.92.92,0,0,1-1-1,1.62,1.62,0,0,1,.61-1.21l5.56-5.84a7.22,7.22,0,0,0,2.31-4.82,3.06,3.06,0,0,0-3.21-3.19,4,4,0,0,0-3.42,1.8.89.89,0,0,1-.8.43.73.73,0,0,1-.82-.74,1.73,1.73,0,0,1,.18-.62,5.29,5.29,0,0,1,4.88-2.59,4.66,4.66,0,0,1,5,4.83c0,2-.95,3.9-2.87,5.93L500,814.47h8a.78.78,0,0,1,.79.85"/><path class="cls-1" d="M521.49,807.41c0-4.81-1.73-7.38-4.19-7.38s-4.19,2.57-4.19,7.38,1.72,7.37,4.19,7.37,4.19-2.62,4.19-7.37m-10.13,0c0-5.94,2.63-9,5.94-9s6,3.06,6,9-2.64,9-6,9-5.94-3.08-5.94-9"/><path class="cls-1" d="M537.07,815.32a.76.76,0,0,1-.79.82H527a.92.92,0,0,1-1-1,1.66,1.66,0,0,1,.61-1.21l5.56-5.84a7.22,7.22,0,0,0,2.31-4.82,3.06,3.06,0,0,0-3.21-3.19,4,4,0,0,0-3.42,1.8.88.88,0,0,1-.79.43.74.74,0,0,1-.83-.74,1.73,1.73,0,0,1,.18-.62,5.29,5.29,0,0,1,4.88-2.59,4.67,4.67,0,0,1,5,4.83c0,2-1,3.9-2.88,5.93l-5.06,5.32h8a.78.78,0,0,1,.79.85"/><path class="cls-1" d="M549.78,807.41c0-4.81-1.72-7.38-4.18-7.38s-4.19,2.57-4.19,7.38,1.72,7.37,4.19,7.37,4.18-2.62,4.18-7.37m-10.11,0c0-5.94,2.61-9,5.93-9s6,3.06,6,9-2.65,9-6,9-5.93-3.08-5.93-9"/><path class="cls-1" d="M553.36,822.15a1.23,1.23,0,0,1,0-.31L560,798.77a.76.76,0,0,1,.72-.54.74.74,0,0,1,.72.75,1.81,1.81,0,0,1,0,.31l-6.58,23a.71.71,0,0,1-.69.54.73.73,0,0,1-.74-.72"/><path class="cls-1" d="M572.72,805.53v-.36c0-3.19-1.67-5.11-4-5.11a3.71,3.71,0,0,0,0,7.42,5,5,0,0,0,4-2m1.7-.59a12.17,12.17,0,0,1-6.76,10.92,2.88,2.88,0,0,1-1.44.54.66.66,0,0,1-.74-.67c0-.49.31-.7.74-.92a10.76,10.76,0,0,0,6.22-7.17,5.63,5.63,0,0,1-3.8,1.44,5.13,5.13,0,0,1-5.22-5.27,5.26,5.26,0,0,1,5.34-5.37c3,0,5.66,2.18,5.66,6.5"/><path class="cls-1" d="M588.13,815.32a.76.76,0,0,1-.8.82H578a.91.91,0,0,1-1-1,1.64,1.64,0,0,1,.62-1.21l5.54-5.84a7.18,7.18,0,0,0,2.31-4.82,3.06,3.06,0,0,0-3.21-3.19,4,4,0,0,0-3.41,1.8.89.89,0,0,1-.8.43.73.73,0,0,1-.82-.74,1.55,1.55,0,0,1,.18-.62,5.28,5.28,0,0,1,4.88-2.59,4.67,4.67,0,0,1,5,4.83c0,2-1,3.9-2.88,5.93l-5.06,5.32h8a.79.79,0,0,1,.8.85"/><path class="cls-1" d="M599.87,811.05a3.56,3.56,0,0,0-3.75-3.7,4.64,4.64,0,0,0-3.78,1.93,4.29,4.29,0,0,0,0,.62c0,3,1.68,4.88,4,4.88a3.55,3.55,0,0,0,3.6-3.73m1.75,0a5.27,5.27,0,0,1-5.35,5.37c-2.95,0-5.65-2.19-5.65-6.5A12.14,12.14,0,0,1,597.38,799a2.83,2.83,0,0,1,1.43-.54.67.67,0,0,1,.75.67c0,.49-.31.69-.75.92a10.66,10.66,0,0,0-6.19,7.12,5.68,5.68,0,0,1,3.78-1.41,5.14,5.14,0,0,1,5.22,5.29"/><path class="cls-1" d="M614.38,810.85a5.51,5.51,0,0,1-5.73,5.55,6.72,6.72,0,0,1-4.35-1.59,1.08,1.08,0,0,1-.38-.78.74.74,0,0,1,.72-.72,1.12,1.12,0,0,1,.75.31,5.46,5.46,0,0,0,3.31,1.16,3.86,3.86,0,1,0-.05-7.71,4.07,4.07,0,0,0-1.93.39,2.71,2.71,0,0,1-1.26.43c-.51,0-.92-.33-.87-1.07l.57-7.23a.9.9,0,0,1,.92-.92h6.81a.79.79,0,1,1,0,1.57h-6.17l-.51,5.88a6.22,6.22,0,0,1,2.8-.62,5.3,5.3,0,0,1,5.37,5.35"/><path class="cls-1" d="M626.91,799.57a3.33,3.33,0,0,1-.49,1.39l-6.91,14.87a.89.89,0,0,1-.82.57.74.74,0,0,1-.79-.77,1.3,1.3,0,0,1,.12-.52L625,800.29h-8a.74.74,0,0,1-.79-.82.77.77,0,0,1,.79-.82h8.87c.72,0,1.1.43,1.1.92"/><path class="cls-1" d="M639,811.36c0,3-2.5,5-5.63,5a7,7,0,0,1-4.5-1.54,1.15,1.15,0,0,1-.4-.8.74.74,0,0,1,.74-.8,1.14,1.14,0,0,1,.77.39,5,5,0,0,0,3.36,1.13c2.39,0,3.88-1.36,3.88-3.39s-1.72-3.49-4.18-3.49h-1.26a.8.8,0,0,1-.83-.83.78.78,0,0,1,.85-.77h1.06c2.28,0,4-1.34,4-3.29,0-1.8-1.16-3-3.28-3a4.64,4.64,0,0,0-3.06,1,1.18,1.18,0,0,1-.78.36.71.71,0,0,1-.71-.72.88.88,0,0,1,.3-.67,6.12,6.12,0,0,1,4.39-1.58c2.91,0,4.91,1.85,4.91,4.46a4.68,4.68,0,0,1-2.9,4.14,4.62,4.62,0,0,1,3.29,4.34"/><path class="cls-1" d="M641,822.15a.85.85,0,0,1,.06-.31l6.57-23.07a.76.76,0,0,1,.72-.54.74.74,0,0,1,.72.75,1.18,1.18,0,0,1,0,.31l-6.58,23a.71.71,0,0,1-.69.54.74.74,0,0,1-.75-.72"/><path class="cls-1" d="M661.71,807.41c0-4.81-1.72-7.38-4.19-7.38s-4.18,2.57-4.18,7.38,1.72,7.37,4.18,7.37,4.19-2.62,4.19-7.37m-10.12,0c0-5.94,2.62-9,5.93-9s6,3.06,6,9-2.65,9-6,9-5.93-3.08-5.93-9"/><path class="cls-1" d="M676,799.57a3.45,3.45,0,0,1-.48,1.39l-6.91,14.87a.9.9,0,0,1-.83.57.76.76,0,0,1-.8-.77,1.53,1.53,0,0,1,.13-.52L674,800.29h-8a.74.74,0,0,1-.79-.82.77.77,0,0,1,.79-.82h8.87c.72,0,1.1.43,1.1.92"/><path class="cls-2" d="M677.76,413.81c16.34,19.45,33.41,38,59.14,47a2.64,2.64,0,0,1,1.75,2.83c-1.21,9.51-1.81,18.94-4,28-9.36,38.58-30.26,69-65.2,88.91C651.3,590.89,631.2,595,610.83,595.22c-53.35.7-106.72.2-160.08.11-3.69,0-7.38-1-11.05-.91-13.62.29-21.82-6.58-26.42-18.91q-20.79-55.8-41.84-111.5c-11.26-29.65-22.89-59.15-34.35-88.72q-9-23.25-18-46.52l-.25-.64a2.62,2.62,0,0,0-4.92.12L268,464.45a2.65,2.65,0,0,0,2.5,3.5h85.87a2.64,2.64,0,0,1,2.48,1.73c5.25,14.23,10.37,28.14,15.8,42.86a2.65,2.65,0,0,1-2.31,3.56c-2.27.15-4.25.28-6.22.27-35.79-.06-71.58.11-107.37-.48-8.43-.13-12.83,2.44-15.78,10.32-7.11,19-14.58,37.93-22.7,56.54a92.53,92.53,0,0,1-13.46,21.85c-7.19,8.64-24.09,11.37-34.22,6.88-10.89-4.83-17.21-16.07-14.64-29a161.11,161.11,0,0,1,8.91-29.05c9.68-24,20.25-47.57,30-71.49,20.06-49,39.82-98.19,59.74-147.28,6.36-15.7,12.31-31.61,19.43-47a69.76,69.76,0,0,1,13.73-19.47c9.45-9.45,20.95-12.26,34.71-9.76,21.29,3.85,33.28,16.75,40.87,35.81q41.19,103.38,82.78,206.6c3,7.42,5.85,14.91,9.34,22.08,7.36,15.08,18.74,23.34,36.48,23.21,32.37-.22,64.76.85,97.13,1A103.77,103.77,0,0,0,613,544.25c23.41-5.1,39.14-19.08,48.53-41.24a179.07,179.07,0,0,0,14.54-75.55c-.09-3.73,0-7.46,0-11.19a2.65,2.65,0,0,1,1.55-2.39Z"/><path class="cls-2" d="M697.85,581.1,733.14,540c8.78,5,17.84,10.75,27.41,15.48,25.09,12.43,50.21,10.72,74.35-2.35a63.07,63.07,0,0,0,19.42-16.59c16.93-21.94,9.85-49.87-15.67-60.37-15.57-6.4-32-10.91-48.3-15.29-18.4-4.95-37.46-7.61-54.85-15.89-21.73-10.35-38.45-26.72-51.54-46.42a355.41,355.41,0,0,1-26.4-46.5c-10-21.52-26-33.93-49.06-37.32a190.76,190.76,0,0,0-26.58-2c-38.88-.22-77.75-.1-116.63-.11-2.16,0-4.31-.13-6.47-.18-4.86-.1-7.38-2.41-7.34-7.43,0-3.69-.18-7.38-.28-11.07-.2-7.69-.2-15.39-.67-23.06-.51-8.35,1.3-11.34,9.52-12.84a62.3,62.3,0,0,1,12.88-.86c32.67.82,65.33,1.82,98,2.7,12.34.34,24.68.25,37,.86,24.47,1.23,47.18,7.57,67.22,22.57a108.71,108.71,0,0,1,30.6,35.26c8.61,15.64,17.46,31.14,26.27,46.66,13,22.87,34,32.56,58.89,36.62,27.37,4.45,54.48,10.37,80.08,21.52,23.54,10.26,40.75,26.9,47.4,52.1,15,56.63-9.93,108.28-65.65,129.89A157.18,157.18,0,0,1,783,615.83C760.14,614,737.76,609.1,717.88,597c-7.22-4.41-13.39-10.52-20-15.85"/><path class="cls-2" d="M740.9,351.59c-5.21-8.73-18.6-32.17-23.31-39.67-2.62-4.17-9.23-14-12.22-17.94-2.46-3.2-1.89-5.86,1.32-7.75a135.79,135.79,0,0,1,13.86-7.32c17.38-7.69,35.53-11.66,54.56-13,25.59-1.85,50.5.38,74.44,9.58,33.53,12.86,52.26,37.77,57.23,73.13,1.76,12.55-4.43,22.6-16.13,27-11.94,4.49-22.83,1.38-29.88-9.43-4.85-7.45-8.56-15.64-13.06-23.33-15.81-27.06-38.16-29.65-69-24.19-17.23,3.05-30.53,15-37.83,32.95"/><path class="cls-2" d="M510.48,428.07c0,29,0,58,0,87,0,12.23-1.5,13.73-13.59,14.86-2.76.26-5.55.23-8.31.45-7.71.62-13.41-2.71-16.37-9.58-6.1-14.11-11.66-24.78-17.19-39.12-1.17-3-1.21-10.26-1.21-13.62q-.06-64.3,0-128.6c0-11,2.68-13.73,13.52-13.88,10.17-.14,20.35-.16,30.52,0s12.49,2.46,12.53,12.77c.13,29.91.05,59.82.05,89.74Z"/></svg>