<svg id="Layer_1" data-name="Layer 1" xmlns="http://www.w3.org/2000/svg" xmlns:xlink="http://www.w3.org/1999/xlink" viewBox="0 0 773.62 187.85"><defs><style>.cls-1{fill:none;}.cls-2{clip-path:url(#clip-path);}.cls-3{fill:#fff;}</style><clipPath id="clip-path" transform="translate(-153.19 -446.08)"><rect class="cls-1" width="1080" height="1080"/></clipPath></defs><title>03. ADS White Type</title><g class="cls-2"><path class="cls-3" d="M200.87,499.6a2.29,2.29,0,0,0,2.13-3.12l-10.27-26.2h-.49L182,496.48a2.29,2.29,0,0,0,2.12,3.12ZM232,523.17a8.92,8.92,0,0,1-17.34,3L211,516.76a2.27,2.27,0,0,0-2.12-1.45H176.2a2.27,2.27,0,0,0-2.12,1.46l-3.68,9.52a9,9,0,0,1-8.36,5.86,8.65,8.65,0,0,1-8.85-8.85,13,13,0,0,1,1.12-5l25.82-62.88c2.75-6.73,7.86-9.35,12.85-9.35s10,2.74,12.6,9.35l25.32,63a13.48,13.48,0,0,1,1.13,4.74" transform="translate(-153.19 -446.08)"/><path class="cls-3" d="M328.47,456.88v65.26c0,5.5-4.51,10.28-10,10a9.42,9.42,0,0,1-9-9.59V486.28a1.59,1.59,0,0,0-2.91-.87l-11.32,17.18c-2.87,4.24-6.11,6.11-9.85,6.11-3.5,0-6.74-1.75-9.61-6.11l-11.2-16.66a1.59,1.59,0,0,0-2.9.88v35.74a9.28,9.28,0,0,1-9.48,9.61c-5.36,0-9.35-4-9.35-9.61V456.81c0-6.24,4.49-10.73,10.23-10.73,5.11,0,8,2,11.1,6.86l20.49,32.19a1.58,1.58,0,0,0,2.67,0l20.13-32.18c3.07-4.87,6.27-7,10.69-6.86a10.73,10.73,0,0,1,10.27,10.8" transform="translate(-153.19 -446.08)"/><path class="cls-3" d="M385.48,499.6a3.16,3.16,0,0,0,2.94-4.31l-9.8-25h-.5l-9.79,25a3.16,3.16,0,0,0,2.94,4.31Zm32.44,23.57a8.92,8.92,0,0,1-17.34,3l-3.46-8.85a3.17,3.17,0,0,0-2.94-2H362.7a3.16,3.16,0,0,0-2.95,2l-3.46,9a9,9,0,0,1-8.35,5.86,8.65,8.65,0,0,1-8.86-8.85,13,13,0,0,1,1.12-5L366,455.43c2.75-6.73,7.86-9.35,12.85-9.35s10,2.74,12.6,9.35l25.32,63a13.48,13.48,0,0,1,1.13,4.74" transform="translate(-153.19 -446.08)"/><path class="cls-3" d="M428.78,523.17V457.05a11,11,0,0,1,11.22-11c3.12,0,6.87,1,10.61,6l34.8,47.41h.13V455.06a9.36,9.36,0,0,1,18.71,0v66A11.07,11.07,0,0,1,493,532.15c-3.12,0-7.23-1.37-10.85-6.36l-34.43-46.41h-.25l.13,43.79c0,5-4,9-9.48,9a9,9,0,0,1-9.36-9" transform="translate(-153.19 -446.08)"/><path class="cls-3" d="M584.85,523.05a8.47,8.47,0,0,1-8.73,8.48H527.89c-8.59,0-13.68-9.82-8.52-16.69l.11-.15,37.82-49.75a.79.79,0,0,0-.63-1.27H526a8.49,8.49,0,1,1,0-17h48.28a9.86,9.86,0,0,1,9.48,9.73,11,11,0,0,1-2.74,7.36l-38,49.5a.8.8,0,0,0,.64,1.27h32.45a8.48,8.48,0,0,1,8.73,8.49" transform="translate(-153.19 -446.08)"/><path class="cls-3" d="M596.33,495.73V455.56a9.61,9.61,0,0,1,19.21,0v40c0,15,8.48,20.09,17.59,20.09,8.73,0,17.59-5.37,17.59-20.09V455.06c0-5,4.74-9,9.85-9a9.07,9.07,0,0,1,9.23,9v40.67c0,24.95-18,36.92-36.8,36.92s-36.67-12-36.67-36.92" transform="translate(-153.19 -446.08)"/><path class="cls-3" d="M686.9,523.17V457.05a11,11,0,0,1,11.23-11c3.12,0,6.86,1,10.61,6l34.8,47.41h.13V455.06a9.36,9.36,0,0,1,18.71,0v66a11.07,11.07,0,0,1-11.23,11.1c-3.12,0-7.23-1.37-10.85-6.36l-34.44-46.41h-.25l.13,43.79c0,5-4,9-9.48,9a9,9,0,0,1-9.36-9" transform="translate(-153.19 -446.08)"/><path class="cls-3" d="M843,523.05a8.47,8.47,0,0,1-8.73,8.48H786c-8.59,0-13.68-9.82-8.52-16.69l.11-.15,37.83-49.75a.79.79,0,0,0-.63-1.27H784.09a8.49,8.49,0,1,1,0-17h48.28a9.86,9.86,0,0,1,9.48,9.73c0,2.75-.75,4.74-2.74,7.36l-38,49.5a.79.79,0,0,0,.64,1.27h32.44a8.48,8.48,0,0,1,8.73,8.49" transform="translate(-153.19 -446.08)"/><path class="cls-3" d="M894.66,499.6a3,3,0,0,0,2.75-4l-9.9-25.28H887l-9.9,25.28a3,3,0,0,0,2.75,4Zm32.15,23.57a8.92,8.92,0,0,1-17.34,3l-3.51-9a3,3,0,0,0-2.75-1.88H871.45a3,3,0,0,0-2.76,1.89l-3.51,9.09a9,9,0,0,1-8.36,5.86A8.65,8.65,0,0,1,848,523.3a13,13,0,0,1,1.12-5l25.82-62.88c2.75-6.73,7.86-9.35,12.85-9.35s10,2.74,12.6,9.35l25.32,63a13.26,13.26,0,0,1,1.13,4.74" transform="translate(-153.19 -446.08)"/><path class="cls-3" d="M266.63,573c0-7.14-4.7-12.18-12.37-12.18h-5.13v24h5.13c7.52,0,12.37-5,12.37-11.8m4.86,0c0,8.51-6.28,16-16.94,16h-7.8a2.23,2.23,0,0,1-2.29-2.29V559a2.24,2.24,0,0,1,2.29-2.33h7.8c10.61,0,16.94,7.19,16.94,16.37" transform="translate(-153.19 -446.08)"/><path class="cls-3" d="M297.75,586.89A2.1,2.1,0,0,1,295.6,589H280.42a2.23,2.23,0,0,1-2.28-2.28V559a2.23,2.23,0,0,1,2.24-2.33H295a2.1,2.1,0,1,1,0,4.19H282.81v9.8h10.94a2,2,0,1,1,0,4H282.81v10.18H295.6a2.07,2.07,0,0,1,2.15,2.1" transform="translate(-153.19 -446.08)"/><path class="cls-3" d="M321.29,579.71c0-3-1.94-5.1-5.94-5.1h-6.67v10.28h6.67c4,0,5.94-2.19,5.94-5.18m-12.61-19v9.9h6c3.43,0,5.43-2,5.43-5.1,0-2.85-2-4.8-5.66-4.8Zm17.37,19.13c0,5.23-3.9,9.13-10.37,9.13h-9.33a2.22,2.22,0,0,1-2.28-2.28V559a2.24,2.24,0,0,1,2.28-2.33h8.47c6.14,0,10,3.62,10,8.56a8,8,0,0,1-3.95,7.14,8.09,8.09,0,0,1,5.19,7.52" transform="translate(-153.19 -446.08)"/><path class="cls-3" d="M354.69,558.72a2,2,0,0,1-2.1,2.1h-8.65v26.07a2.34,2.34,0,0,1-4.67,0V560.82h-8.7a2.1,2.1,0,0,1-.05-4.19h22.12a2,2,0,0,1,2.05,2.09" transform="translate(-153.19 -446.08)"/><path class="cls-3" d="M368.44,586.46a2.71,2.71,0,0,1-1.43-2.28,2,2,0,0,1,2.09-2.09,3.84,3.84,0,0,1,2.09.9,12.1,12.1,0,0,0,6.86,2.14c3.42,0,5.71-1.86,5.71-4.71,0-3.1-2.91-4.38-6.52-6-5.09-2.23-8.76-4.47-8.76-9.51s4-8.76,10.14-8.76a14.09,14.09,0,0,1,6.89,1.53c1.1.52,1.86,1.23,1.86,2.28a2,2,0,0,1-1.95,2.14,4.26,4.26,0,0,1-1.71-.52,12,12,0,0,0-5-1.19c-3.61,0-5.52,2-5.52,4.28,0,3.09,3.48,4.38,6.95,6,4.52,2,8.32,4.28,8.32,9.51,0,5.85-4.7,9.23-10.6,9.23a15.64,15.64,0,0,1-9.37-2.9" transform="translate(-153.19 -446.08)"/><path class="cls-3" d="M420.72,572.85c0-7.85-5.52-12.41-11.51-12.41s-11.52,4.56-11.52,12.41,5.62,12.33,11.52,12.33,11.51-4.57,11.51-12.33m-27.83,0c0-9.56,7.18-16.7,16.32-16.7s16.36,7.14,16.36,16.7a16.15,16.15,0,0,1-16.36,16.61c-9.14,0-16.32-7-16.32-16.61" transform="translate(-153.19 -446.08)"/><path class="cls-3" d="M450.17,586.89a2.05,2.05,0,0,1-2.1,2.09H434.46a2.24,2.24,0,0,1-2.28-2.33V558.72a2.25,2.25,0,0,1,2.33-2.33,2.27,2.27,0,0,1,2.33,2.33v26.07h11.23a2.06,2.06,0,0,1,2.1,2.1" transform="translate(-153.19 -446.08)"/><path class="cls-3" d="M453.68,575.8V558.72a2.32,2.32,0,0,1,2.38-2.33,2.24,2.24,0,0,1,2.28,2.33v17c0,6.18,3.43,9.51,8.67,9.51,5.08,0,8.61-3.38,8.61-9.47V558.68a2.3,2.3,0,0,1,2.37-2.29,2.22,2.22,0,0,1,2.24,2.29V575.8c0,8.14-5.38,13.66-13.22,13.66-8.05,0-13.33-5.52-13.33-13.66" transform="translate(-153.19 -446.08)"/><path class="cls-3" d="M511.29,558.72a2,2,0,0,1-2.09,2.1h-8.66v26.07a2.33,2.33,0,0,1-4.66,0V560.82h-8.71a2.1,2.1,0,0,1,0-4.19h22.12a2,2,0,0,1,2,2.09" transform="translate(-153.19 -446.08)"/><path class="cls-3" d="M516.47,586.89V558.72a2.29,2.29,0,0,1,2.34-2.33,2.25,2.25,0,0,1,2.33,2.33v28.17a2.24,2.24,0,0,1-2.33,2.29,2.28,2.28,0,0,1-2.34-2.29" transform="translate(-153.19 -446.08)"/><path class="cls-3" d="M555.63,572.85c0-7.85-5.52-12.41-11.51-12.41S532.6,565,532.6,572.85s5.62,12.33,11.52,12.33,11.51-4.57,11.51-12.33m-27.83,0c0-9.56,7.18-16.7,16.32-16.7s16.36,7.14,16.36,16.7a16.15,16.15,0,0,1-16.36,16.61c-9.14,0-16.32-7-16.32-16.61" transform="translate(-153.19 -446.08)"/><path class="cls-3" d="M567.09,586.94V559.49a3,3,0,0,1,3.09-3.1,3.74,3.74,0,0,1,3.15,1.91l16,23.55h.09V558.68a2.29,2.29,0,1,1,4.57,0v27.4a3,3,0,0,1-3,3.09,3.74,3.74,0,0,1-3.24-1.95l-16-23.41h-.1l0,23.13a2.26,2.26,0,0,1-2.33,2.23,2.2,2.2,0,0,1-2.24-2.23" transform="translate(-153.19 -446.08)"/><path class="cls-3" d="M601.53,586.46a2.72,2.72,0,0,1-1.42-2.28,2,2,0,0,1,2.09-2.09,3.84,3.84,0,0,1,2.09.9,12.12,12.12,0,0,0,6.85,2.14c3.43,0,5.71-1.86,5.71-4.71,0-3.1-2.9-4.38-6.51-6-5.1-2.23-8.76-4.47-8.76-9.51s4-8.76,10.14-8.76a14.16,14.16,0,0,1,6.9,1.53c1.09.52,1.85,1.23,1.85,2.28a2,2,0,0,1-2,2.14,4.26,4.26,0,0,1-1.71-.52,12,12,0,0,0-5-1.19c-3.61,0-5.51,2-5.51,4.28,0,3.09,3.47,4.38,6.94,6,4.52,2,8.33,4.28,8.33,9.51,0,5.85-4.71,9.23-10.61,9.23a15.67,15.67,0,0,1-9.38-2.9" transform="translate(-153.19 -446.08)"/><path class="cls-3" d="M644.87,596.07a29,29,0,0,1-7.66-20,28.23,28.23,0,0,1,7.66-19.89,2.43,2.43,0,0,1,1.67-.95,1.63,1.63,0,0,1,1.66,1.72,3,3,0,0,1-.9,1.8A27,27,0,0,0,641.4,576a27.7,27.7,0,0,0,5.9,17.46,3.16,3.16,0,0,1,.9,1.81,1.63,1.63,0,0,1-1.66,1.71,2.25,2.25,0,0,1-1.67-.95" transform="translate(-153.19 -446.08)"/><path class="cls-3" d="M669.85,567.1c0-3.71-2.57-6.28-6.85-6.28h-4.57v12.65H663c4.33,0,6.9-2.52,6.9-6.37m4.81,0c0,5.9-4.33,10.51-11.23,10.51h-5v9.23a2.29,2.29,0,0,1-2.33,2.38,2.26,2.26,0,0,1-2.33-2.38V558.91a2.27,2.27,0,0,1,2.28-2.33h2.38v0h5c6.9,0,11.23,4.71,11.23,10.47" transform="translate(-153.19 -446.08)"/><path class="cls-3" d="M703.43,558.72a2,2,0,0,1-2.09,2.1h-8.66v26.07a2.33,2.33,0,0,1-4.66,0V560.82h-8.71a2.1,2.1,0,0,1,0-4.19h22.12a2,2,0,0,1,2,2.09" transform="translate(-153.19 -446.08)"/><path class="cls-3" d="M731.45,558.53A3.05,3.05,0,0,1,731,560L720.8,575.85v11a2.34,2.34,0,0,1-4.67,0v-11L706,560.15a3,3,0,0,1-.52-1.52,2.15,2.15,0,0,1,2.24-2.24,2.12,2.12,0,0,1,1.94,1.15c2.91,4.66,5.95,9.27,8.85,14q4.35-7.07,8.76-13.89a2.44,2.44,0,0,1,2.14-1.29,2.13,2.13,0,0,1,2.09,2.14" transform="translate(-153.19 -446.08)"/><path class="cls-3" d="M737.16,556.15a29,29,0,0,1,7.66,20,28.19,28.19,0,0,1-7.66,19.88,2.43,2.43,0,0,1-1.67.95,1.63,1.63,0,0,1-1.66-1.71,3,3,0,0,1,.9-1.81,27,27,0,0,0,5.9-17.31,27.75,27.75,0,0,0-5.9-17.47,3.1,3.1,0,0,1-.9-1.8,1.63,1.63,0,0,1,1.66-1.72,2.29,2.29,0,0,1,1.67.95" transform="translate(-153.19 -446.08)"/><path class="cls-3" d="M780.69,586.89a2.05,2.05,0,0,1-2.1,2.09H765a2.24,2.24,0,0,1-2.29-2.33V558.72a2.25,2.25,0,0,1,2.34-2.33,2.28,2.28,0,0,1,2.33,2.33v26.07h11.22a2.06,2.06,0,0,1,2.1,2.1" transform="translate(-153.19 -446.08)"/><path class="cls-3" d="M805.33,558.72a2,2,0,0,1-2.09,2.1h-8.66v26.07a2.34,2.34,0,0,1-4.67,0V560.82h-8.7a2.1,2.1,0,0,1-.05-4.19h22.12a2,2,0,0,1,2.05,2.09" transform="translate(-153.19 -446.08)"/><path class="cls-3" d="M832.68,573c0-7.14-4.7-12.18-12.37-12.18h-5.13v24h5.13c7.52,0,12.37-5,12.37-11.8m4.86,0c0,8.51-6.28,16-16.94,16h-7.8a2.23,2.23,0,0,1-2.29-2.29V559a2.24,2.24,0,0,1,2.29-2.33h7.8c10.61,0,16.94,7.19,16.94,16.37" transform="translate(-153.19 -446.08)"/><path class="cls-3" d="M410.74,618.48c2.52,0,4.12-1.3,4.12-3.59s-1.67-3.6-4-3.6h-3v7.19Zm7.4,8a.84.84,0,0,1-1.51.51L411.18,620h-3.31v6.42a.83.83,0,0,1-.85.85.85.85,0,0,1-.88-.85V610.6a.85.85,0,0,1,.88-.87h3.85c3.63,0,5.73,2.13,5.73,5.06A5,5,0,0,1,413,619.7l4.95,6.13a1,1,0,0,1,.18.62" transform="translate(-153.19 -446.08)"/><path class="cls-3" d="M431.5,626.42a.78.78,0,0,1-.82.78h-8.43a.83.83,0,0,1-.88-.85V610.6a.83.83,0,0,1,.83-.87h8.17a.77.77,0,0,1,.82.79.78.78,0,0,1-.82.77H423.1v6.27h6.6a.77.77,0,1,1,0,1.54h-6.6v6.53h7.58a.77.77,0,0,1,.82.79" transform="translate(-153.19 -446.08)"/><path class="cls-3" d="M448.73,619.61v5.6a1.09,1.09,0,0,1-.72,1.14,11.93,11.93,0,0,1-5.37,1.1,9,9,0,1,1,.23-18,9.39,9.39,0,0,1,4.73,1.06c.57.31.67.62.67,1a.72.72,0,0,1-.67.75,1.65,1.65,0,0,1-.79-.26,8.2,8.2,0,0,0-3.88-.93,7.43,7.43,0,1,0,0,14.86A9.09,9.09,0,0,0,447,625v-4.57h-3.72a.79.79,0,1,1,0-1.57h4.63a.79.79,0,0,1,.79.79" transform="translate(-153.19 -446.08)"/><path class="cls-3" d="M451.91,625.91a1.43,1.43,0,1,1,1.44,1.41,1.43,1.43,0,0,1-1.44-1.41" transform="translate(-153.19 -446.08)"/><path class="cls-3" d="M464.7,626.42V610.93A1.27,1.27,0,0,1,466,609.6a1.64,1.64,0,0,1,1.41.89l9.51,14.37H477V610.47a.85.85,0,0,1,.87-.87.83.83,0,0,1,.83.87V626a1.24,1.24,0,0,1-1.26,1.33,1.69,1.69,0,0,1-1.49-.92L466.42,612h-.05v14.41a.87.87,0,0,1-.85.87.85.85,0,0,1-.82-.87" transform="translate(-153.19 -446.08)"/><path class="cls-3" d="M488.51,618.48c2.52,0,4.11-1.3,4.11-3.59s-1.67-3.6-4-3.6h-3v7.19Zm7.4,8a.84.84,0,0,1-.82.85.82.82,0,0,1-.69-.34L489,620h-3.32v6.42a.82.82,0,0,1-.84.85.85.85,0,0,1-.88-.85V610.6a.85.85,0,0,1,.88-.87h3.85c3.62,0,5.73,2.13,5.73,5.06a5,5,0,0,1-3.6,4.91l5,6.13a1,1,0,0,1,.18.62" transform="translate(-153.19 -446.08)"/><path class="cls-3" d="M508.77,626.37a.76.76,0,0,1-.79.82h-9.3a.92.92,0,0,1-1-1,1.62,1.62,0,0,1,.61-1.21l5.56-5.83a7.24,7.24,0,0,0,2.31-4.83,3.06,3.06,0,0,0-3.21-3.19,4,4,0,0,0-3.42,1.8.88.88,0,0,1-.8.44.73.73,0,0,1-.82-.75,1.67,1.67,0,0,1,.18-.61,5.28,5.28,0,0,1,4.88-2.6,4.66,4.66,0,0,1,5,4.83c0,2-.95,3.91-2.87,5.94L500,625.52h8a.78.78,0,0,1,.79.85" transform="translate(-153.19 -446.08)"/><path class="cls-3" d="M521.49,618.46c0-4.81-1.73-7.37-4.19-7.37s-4.19,2.56-4.19,7.37,1.72,7.37,4.19,7.37,4.19-2.62,4.19-7.37m-10.13,0c0-5.93,2.63-9,5.94-9s6,3.06,6,9-2.64,9-6,9-5.94-3.08-5.94-9" transform="translate(-153.19 -446.08)"/><path class="cls-3" d="M537.07,626.37a.76.76,0,0,1-.79.82H527a.92.92,0,0,1-1-1,1.66,1.66,0,0,1,.61-1.21l5.56-5.83a7.24,7.24,0,0,0,2.31-4.83,3.06,3.06,0,0,0-3.21-3.19,4,4,0,0,0-3.42,1.8.86.86,0,0,1-.79.44.74.74,0,0,1-.83-.75,1.67,1.67,0,0,1,.18-.61,5.28,5.28,0,0,1,4.88-2.6,4.67,4.67,0,0,1,5,4.83c0,2-1,3.91-2.88,5.94l-5.06,5.31h8a.78.78,0,0,1,.79.85" transform="translate(-153.19 -446.08)"/><path class="cls-3" d="M549.78,618.46c0-4.81-1.72-7.37-4.18-7.37s-4.19,2.56-4.19,7.37,1.72,7.37,4.19,7.37,4.18-2.62,4.18-7.37m-10.11,0c0-5.93,2.61-9,5.93-9s6,3.06,6,9-2.65,9-6,9-5.93-3.08-5.93-9" transform="translate(-153.19 -446.08)"/><path class="cls-3" d="M553.36,633.21a1.17,1.17,0,0,1,0-.31L560,609.83a.75.75,0,0,1,.72-.54.73.73,0,0,1,.72.74,1.54,1.54,0,0,1,0,.31l-6.58,23a.7.7,0,0,1-.69.53.73.73,0,0,1-.74-.71" transform="translate(-153.19 -446.08)"/><path class="cls-3" d="M572.72,616.59v-.37c0-3.18-1.67-5.11-4-5.11a3.72,3.72,0,0,0,0,7.43,5,5,0,0,0,4-1.95m1.7-.6a12.15,12.15,0,0,1-6.76,10.92,2.88,2.88,0,0,1-1.44.54.66.66,0,0,1-.74-.66c0-.49.31-.7.74-.93a10.72,10.72,0,0,0,6.22-7.17,5.63,5.63,0,0,1-3.8,1.44,5.12,5.12,0,0,1-5.22-5.27,5.26,5.26,0,0,1,5.34-5.36c3,0,5.66,2.18,5.66,6.49" transform="translate(-153.19 -446.08)"/><path class="cls-3" d="M588.13,626.37a.76.76,0,0,1-.8.82H578a.91.91,0,0,1-1-1,1.64,1.64,0,0,1,.62-1.21l5.54-5.83a7.2,7.2,0,0,0,2.31-4.83,3.06,3.06,0,0,0-3.21-3.19,4,4,0,0,0-3.41,1.8.88.88,0,0,1-.8.44.73.73,0,0,1-.82-.75,1.5,1.5,0,0,1,.18-.61,5.27,5.27,0,0,1,4.88-2.6,4.67,4.67,0,0,1,5,4.83c0,2-1,3.91-2.88,5.94l-5.06,5.31h8a.79.79,0,0,1,.8.85" transform="translate(-153.19 -446.08)"/><path class="cls-3" d="M599.87,622.11a3.56,3.56,0,0,0-3.75-3.7,4.66,4.66,0,0,0-3.78,1.92,4.36,4.36,0,0,0,0,.62c0,2.95,1.68,4.88,4,4.88a3.54,3.54,0,0,0,3.6-3.72m1.75,0a5.27,5.27,0,0,1-5.35,5.37c-2.95,0-5.65-2.18-5.65-6.5A12.15,12.15,0,0,1,597.38,610a2.94,2.94,0,0,1,1.43-.54.67.67,0,0,1,.75.67c0,.49-.31.69-.75.93a10.62,10.62,0,0,0-6.19,7.11,5.68,5.68,0,0,1,3.78-1.41,5.15,5.15,0,0,1,5.22,5.29" transform="translate(-153.19 -446.08)"/><path class="cls-3" d="M614.38,621.9a5.5,5.5,0,0,1-5.73,5.55,6.72,6.72,0,0,1-4.35-1.59,1.06,1.06,0,0,1-.38-.77.74.74,0,0,1,.72-.72,1.07,1.07,0,0,1,.75.31,5.45,5.45,0,0,0,3.31,1.15,3.86,3.86,0,1,0-.05-7.71,4.2,4.2,0,0,0-1.93.39,2.73,2.73,0,0,1-1.26.44c-.51,0-.92-.34-.87-1.08l.57-7.22a.91.91,0,0,1,.92-.93h6.81a.79.79,0,0,1,.82.8.78.78,0,0,1-.82.77h-6.17l-.51,5.88a6.34,6.34,0,0,1,2.8-.61,5.29,5.29,0,0,1,5.37,5.34" transform="translate(-153.19 -446.08)"/><path class="cls-3" d="M626.91,610.62a3.28,3.28,0,0,1-.49,1.39l-6.91,14.87a.89.89,0,0,1-.82.57.74.74,0,0,1-.79-.77,1.3,1.3,0,0,1,.12-.51L625,611.34h-8a.74.74,0,0,1-.79-.82.77.77,0,0,1,.79-.82h8.87c.72,0,1.1.43,1.1.92" transform="translate(-153.19 -446.08)"/><path class="cls-3" d="M639,622.42c0,3-2.5,5-5.63,5a6.94,6.94,0,0,1-4.5-1.54,1.15,1.15,0,0,1-.4-.8.73.73,0,0,1,.74-.79,1.17,1.17,0,0,1,.77.38,4.91,4.91,0,0,0,3.36,1.13c2.39,0,3.88-1.36,3.88-3.39s-1.72-3.49-4.18-3.49h-1.26a.8.8,0,0,1-.83-.82.78.78,0,0,1,.85-.77h1.06c2.28,0,4-1.34,4-3.29s-1.16-3-3.28-3a4.64,4.64,0,0,0-3.06,1,1.18,1.18,0,0,1-.78.36.71.71,0,0,1-.71-.72.86.86,0,0,1,.3-.67,6.13,6.13,0,0,1,4.39-1.59c2.91,0,4.91,1.85,4.91,4.47a4.66,4.66,0,0,1-2.9,4.13,4.63,4.63,0,0,1,3.29,4.35" transform="translate(-153.19 -446.08)"/><path class="cls-3" d="M641,633.21a.81.81,0,0,1,.06-.31l6.57-23.07a.75.75,0,0,1,.72-.54.73.73,0,0,1,.72.74,1.06,1.06,0,0,1,0,.31l-6.58,23a.7.7,0,0,1-.69.53.74.74,0,0,1-.75-.71" transform="translate(-153.19 -446.08)"/><path class="cls-3" d="M661.71,618.46c0-4.81-1.72-7.37-4.19-7.37s-4.18,2.56-4.18,7.37,1.72,7.37,4.18,7.37,4.19-2.62,4.19-7.37m-10.12,0c0-5.93,2.62-9,5.93-9s6,3.06,6,9-2.65,9-6,9-5.93-3.08-5.93-9" transform="translate(-153.19 -446.08)"/><path class="cls-3" d="M676,610.62a3.4,3.4,0,0,1-.48,1.39l-6.91,14.87a.9.9,0,0,1-.83.57.76.76,0,0,1-.8-.77,1.53,1.53,0,0,1,.13-.51L674,611.34h-8a.74.74,0,0,1-.79-.82.77.77,0,0,1,.79-.82h8.87c.72,0,1.1.43,1.1.92" transform="translate(-153.19 -446.08)"/></g></svg>